PathFileType	4	(X/Y/Z)	OpenSim_Sub09_EMGBaseline_Gyro.trc
DataRate	CameraRate	NumFrames	NumMarkers	Units	OrigDataRate	OrigDataStartFrame	OrigNumFrames
100	100	23	8	m	100	913	7301
Frame#	Time	torso_imu_offset_imu	pelvis_imu_offset_imu	tibia_r_imu_offset_imu	femur_r_imu_offset_imu	tibia_l_imu_offset_imu	femur_l_imu_offset_imu	toes_r_imu_offset_imu	toes_l_imu_offset_imu
				X1	Y1	Z1	X2	Y2	Z2	X3	Y3	Z3	X4	Y4	Z4	X5	Y5	Z5	X6	Y6	Z6	X7	Y7	Z7	X8		Y8	Z8	

913	9.12000000	0.08747500	0.37635700	0.18142000	0.23807600	-0.40170000	0.46262100	-1.75147500	-1.43015900	-0.15357700	-0.81046100	-0.78962800	-0.76108600	0.06174000	0.46664700	2.01485000	0.64093300	0.69245700	0.00488400	0.74782900	-3.50870000	-0.83436500	-0.15782600	-2.12321300	0.80461300
914	9.13000000	0.03364000	0.38815200	0.17363500	0.15707900	-0.37537800	0.49687900	-0.73679000	-0.40103800	-0.76551500	-1.35397500	-0.71005500	-0.74699900	0.09180600	0.45931400	2.04654500	0.45518700	0.61785400	-0.04768500	0.36587100	-3.24088400	-1.03317800	-0.17354100	-2.36526600	0.90294000
915	9.14000000	-0.00729300	0.35559300	0.16339400	-0.03515100	-0.33190400	0.52412200	1.27806000	-0.08964600	-1.69131500	-1.60108500	-0.76214800	-0.48003200	-0.05164000	0.45780600	2.05848400	0.26764700	0.56585600	-0.10289100	-0.00876000	-2.88627400	-0.86418100	-0.25240800	-2.62802700	1.04027900
916	9.15000000	-0.06155000	0.31417800	0.14521900	-0.31100400	-0.31338700	0.42188900	2.33800200	-0.34947800	-2.04593600	-1.80911200	-0.57620800	0.01320500	-0.16219000	0.41589400	2.09098600	0.04127500	0.52236400	-0.18131200	-0.07893900	-2.37829400	-0.70703200	-0.32847700	-2.91693800	1.19127500
917	9.16000000	-0.11865700	0.28942900	0.10727000	-0.46683100	-0.37057900	0.20627400	2.87536800	-0.30220500	-2.01822700	-2.26716400	-0.37128300	0.65311800	-0.16545800	0.33500900	2.15492500	-0.19381000	0.47031000	-0.26926300	-0.21901100	-2.04416500	-0.50507400	-0.40179400	-3.24715700	1.38084200
918	9.17000000	-0.17144600	0.28105400	0.07843900	-0.46796600	-0.43927000	-0.02898100	3.29789000	-0.16984900	-1.86950300	-2.40290200	-0.75762700	1.03946100	-0.25497700	0.24259800	2.23599200	-0.33606900	0.41160700	-0.37665300	-0.14603700	-1.92534800	-0.43897300	-0.36384400	-3.57676300	1.56275400
919	9.18000000	-0.20038400	0.28539900	0.04569600	-0.40156900	-0.46355400	-0.21620300	3.37377400	-0.09414700	-1.63305500	-1.43355600	-1.12664600	1.01171800	-0.33708000	0.11710400	2.31938400	-0.40910200	0.40199600	-0.50735800	0.39156900	-1.49728200	-0.49348900	-0.35179000	-3.92540500	1.77599000
920	9.19000000	-0.19993100	0.29049400	0.00778900	-0.26339600	-0.40448500	-0.28850700	3.09676500	-0.04044800	-1.32620300	-0.34546000	-0.79981700	0.78180400	-0.26505100	-0.01669700	2.39262600	-0.46717900	0.47129200	-0.65478700	0.55244900	-0.76193500	-0.35469900	-0.40473600	-4.28869400	2.02054500
921	9.20000000	-0.16536000	0.28675700	-0.03070700	-0.15537900	-0.29802300	-0.26841100	2.49081600	-0.10991300	-1.09977600	0.12508100	-0.53582000	0.39903400	-0.05373800	0.01641900	2.40179300	-0.43965800	0.59512500	-0.79127100	0.71202200	-0.86689500	-0.34535300	-0.60966100	-4.55770100	2.26845300
922	9.21000000	-0.10033000	0.27560400	-0.07055900	-0.03365100	-0.22528200	-0.28376400	1.44336700	-0.35673700	-1.06547100	-0.16312300	-0.59362000	-0.06044000	0.13949500	0.13168400	2.38278700	-0.30041500	0.72612800	-0.92587800	1.00133100	-0.64392100	-0.35294000	-0.66298400	-4.60235900	2.45176800
923	9.22000000	-0.03685800	0.27607200	-0.09783600	0.10631800	-0.13188800	-0.26248800	0.42919500	-0.91810300	-1.22798100	-0.23542200	-0.57047300	-0.37908700	0.30180000	0.19007400	2.42362500	-0.19033500	0.73317300	-1.10695600	0.74633700	-0.32898000	-0.26573500	-0.85957900	-4.44020900	2.61814400
924	9.23000000	0.02263000	0.27514700	-0.12222300	0.23509100	-0.01601200	-0.17290300	-0.33107600	-1.46359500	-1.43985700	-0.30928400	-0.53219900	-0.72953200	0.30364400	0.21211100	2.47171000	-0.17901300	0.58409100	-1.32182000	0.55053300	-0.08604300	-0.19674600	-0.75289200	-4.41797900	2.74639300
925	9.24000000	0.08273100	0.26139000	-0.12533700	0.37048700	0.04950200	-0.05521300	-0.96622500	-1.64121900	-1.46436200	-0.37057000	-0.48695600	-1.06101200	0.05127500	0.17352700	2.46685300	-0.19246600	0.41057500	-1.54636300	0.44314600	-0.08514000	-0.14415800	-0.55172300	-4.40337400	2.77944000
926	9.25000000	0.11770600	0.22756700	-0.12476400	0.47594200	0.08951400	0.03803200	-1.50231600	-1.39882500	-1.19310500	-0.46929300	-0.43083300	-1.34544800	-0.20887300	0.00211000	2.41818700	-0.10970900	0.33077300	-1.76167600	0.35590500	-0.04716800	-0.11554200	-0.27438300	-4.34301800	2.86475500
927	9.26000000	0.13243600	0.20050300	-0.10399300	0.53578900	0.11730700	0.09773000	-1.60970300	-0.99630000	-0.74381300	-0.58419100	-0.39820800	-1.51689200	-0.36695900	-0.11397800	2.28458000	0.10128600	0.31351500	-1.89893000	0.30474800	-0.02168700	-0.08972100	0.20636600	-4.04657400	2.76275300
928	9.27000000	0.13511700	0.17015600	-0.07740300	0.56703300	0.12276300	0.14005700	-1.50301300	-0.74744800	-0.34220200	-0.62367600	-0.36908300	-1.48301400	-0.53164100	-0.16708500	2.08884500	0.31621900	0.30657300	-1.93047600	0.28739300	-0.01953400	-0.08506000	0.67407900	-3.61023400	2.74667000
929	9.28000000	0.12764900	0.13290400	-0.04199300	0.57172400	0.10862500	0.15300300	-1.43190700	-0.49909400	-0.12612700	-0.53661200	-0.33913400	-1.28051600	-0.45009300	-0.28545100	1.88511400	0.53036200	0.30501400	-1.90233700	0.27838000	-0.03779200	-0.06625700	0.86492200	-3.04348800	2.61610100
930	9.29000000	0.12412900	0.09711700	-0.01358700	0.53211000	0.07905000	0.12478000	-1.29179700	-0.37855800	-0.12811200	-0.26137400	-0.29417900	-1.04651900	-0.29355500	-0.38076100	1.71205100	0.69218100	0.33839300	-1.89156700	0.20409400	-0.02136900	-0.04060500	0.50167200	-3.00269500	2.56140200
931	9.30000000	0.12508400	0.06552900	0.00829100	0.47099900	0.06979200	0.05995000	-1.14269200	-0.40267800	-0.41912200	0.09575200	-0.25459700	-0.88652000	-0.18762300	-0.22785100	1.55217100	0.75104200	0.37878300	-1.87485200	0.21873800	-0.00942600	-0.04097100	-0.29363900	-2.32292600	2.57184300
932	9.31000000	0.13307100	0.03811500	0.02014100	0.38002900	0.07091300	-0.00745200	-1.01841600	-0.36305800	-0.76891100	0.40327500	-0.18213400	-0.79572100	0.05452600	0.07175600	1.39985900	0.70837900	0.34011400	-1.80218800	0.19604800	0.00158900	-0.03202600	0.73491400	0.46508200	1.34595600
933	9.32000000	0.15523500	-0.00249500	0.02488000	0.25792100	0.08512600	-0.07193300	-0.83949300	-0.39732100	-0.85100300	0.56713000	-0.05044500	-0.76562500	0.62256800	0.16288800	1.22005900	0.68665900	0.36455800	-1.68914200	0.19189400	0.00335600	-0.03982900	1.12518500	2.36877300	0.66409700
934	9.33000000	0.15900300	-0.05379600	0.04240000	0.12187000	0.09261700	-0.12627300	-0.39505300	-0.40915600	-0.69871200	0.57964400	0.03234700	-0.79520700	1.32700800	-0.38623100	0.96490000	0.64375700	0.35824000	-1.56336200	0.22019700	0.02804200	-0.06079300	1.11579900	2.72333600	0.40686300
935	9.34000000	0.16291500	-0.11119900	0.04779500	0.02002700	0.10227600	-0.18914000	0.14855400	-0.29964700	-0.53014100	0.49531100	0.01744300	-0.84135700	2.35017000	-1.23822300	0.48893400	0.54855800	0.25956400	-1.49498800	0.26021500	0.04604900	-0.08360100	0.39402800	2.48340300	0.41171900
